<?xml version="1.0" encoding="UTF-8" standalone="no"?>
<!DOCTYPE svg PUBLIC "-//W3C//DTD SVG 1.1//EN" "http://www.w3.org/Graphics/SVG/1.1/DTD/svg11.dtd">
<svg xmlns="http://www.w3.org/2000/svg" xmlns:xlink="http://www.w3.org/1999/xlink" version="1.1" width="968.451pt" height="158.74pt" viewBox="0 0 968.451 158.74">
<g enable-background="new">
<g id="Layer-1" data-name="Artifact">
<path transform="matrix(1,0,0,-1,202.4279,64.4932)" stroke-width="1" stroke-linecap="butt" stroke-miterlimit="4" stroke-linejoin="miter" fill="none" stroke="#231f20" d="M 0 0 L 668.335 0 "/>
</g>
<g id="Layer-1" data-name="Artifact">
<path transform="matrix(1,0,0,-1,202.4279,94.246608)" stroke-width="1" stroke-linecap="butt" stroke-miterlimit="4" stroke-linejoin="miter" fill="none" stroke="#231f20" d="M 0 0 L 668.335 0 "/>
</g>
<g id="Layer-1" data-name="Artifact">
<clipPath id="cp41">
<path transform="matrix(1,0,0,-1,0,158.74)" d="M 0 0 L 968.451 0 L 968.451 158.74 L 0 158.74 Z "/>
</clipPath>
<g clip-path="url(#cp41)">
<path transform="matrix(1,0,0,-1,232.3645,83.19951)" d="M 0 0 C -.19 1.65 -1.51 2.569 -3.08 2.569 C -5.29 2.569 -6.589 .92 -6.589 -1.2 C -6.589 -3.261 -5.29 -4.91 -3.08 -4.91 C -1.33 -4.91 -.1 -3.771 .06 -1.991 L -1.46 -1.991 C -1.58 -2.931 -2.12 -3.591 -3.08 -3.591 C -4.49 -3.591 -5.02 -2.391 -5.02 -1.2 C -5.02 .05 -4.49 1.25 -3.08 1.25 C -2.3 1.25 -1.62 .71 -1.52 0 Z M .878 -1.2 C .878 -3.261 2.177 -4.91 4.388 -4.91 C 6.598 -4.91 7.897 -3.261 7.897 -1.2 C 7.897 .92 6.598 2.569 4.388 2.569 C 2.177 2.569 .878 .92 .878 -1.2 M 2.447 -1.2 C 2.447 .05 2.977 1.25 4.388 1.25 C 5.798 1.25 6.328 .05 6.328 -1.2 C 6.328 -2.391 5.798 -3.591 4.388 -3.591 C 2.977 -3.591 2.447 -2.391 2.447 -1.2 M 9.077 -4.74 L 10.546 -4.74 L 10.546 .04 L 10.566 .04 L 13.537 -4.74 L 15.106 -4.74 L 15.106 2.399 L 13.637 2.399 L 13.637 -2.39 L 13.617 -2.39 L 10.636 2.399 L 9.077 2.399 Z M 22.87 0 C 22.68 1.65 21.36 2.569 19.79 2.569 C 17.58 2.569 16.281 .92 16.281 -1.2 C 16.281 -3.261 17.58 -4.91 19.79 -4.91 C 21.54 -4.91 22.77 -3.771 22.93 -1.991 L 21.41 -1.991 C 21.29 -2.931 20.75 -3.591 19.79 -3.591 C 18.38 -3.591 17.85 -2.391 17.85 -1.2 C 17.85 .05 18.38 1.25 19.79 1.25 C 20.57 1.25 21.25 .71 21.35 0 Z M 24.086 -4.74 L 29.505 -4.74 L 29.505 -3.421 L 25.655 -3.421 L 25.655 -1.67 L 29.115 -1.67 L 29.115 -.451 L 25.655 -.451 L 25.655 1.08 L 29.425 1.08 L 29.425 2.399 L 24.086 2.399 Z M 30.741 -4.74 L 32.31 -4.74 L 32.31 -1.95 L 33.881 -1.95 C 34.671 -1.95 34.961 -2.28 35.071 -3.03 C 35.151 -3.6 35.131 -4.29 35.321 -4.74 L 36.89 -4.74 C 36.61 -4.34 36.62 -3.5 36.59 -3.05 C 36.54 -2.33 36.32 -1.58 35.551 -1.38 L 35.551 -1.36 C 36.34 -1.041 36.68 -.411 36.68 .43 C 36.68 1.51 35.871 2.399 34.591 2.399 L 30.741 2.399 Z M 32.31 1.18 L 34.031 1.18 C 34.731 1.18 35.111 .88 35.111 .19 C 35.111 -.531 34.731 -.831 34.031 -.831 L 32.31 -.831 Z M 38.065 -4.74 L 39.534 -4.74 L 39.534 .04 L 39.554 .04 L 42.525 -4.74 L 44.094 -4.74 L 44.094 2.399 L 42.625 2.399 L 42.625 -2.39 L 42.605 -2.39 L 39.624 2.399 L 38.065 2.399 Z " fill="#231f20"/>
<path transform="matrix(1,0,0,-1,235.7843,77.93921)" d="M 0 0 L 5.049 0 L 5.049 1.319 L 1.569 1.319 L 1.569 7.139 L 0 7.139 Z M 5.948 0 L 11.367 0 L 11.367 1.319 L 7.517 1.319 L 7.517 3.07 L 10.977 3.07 L 10.977 4.289 L 7.517 4.289 L 7.517 5.82 L 11.287 5.82 L 11.287 7.139 L 5.948 7.139 Z M 11.971 0 L 13.561 0 L 14.12 1.59 L 16.79 1.59 L 17.33 0 L 18.96 0 L 16.29 7.139 L 14.68 7.139 Z M 15.46 5.379 L 15.48 5.379 L 16.38 2.759 L 14.53 2.759 Z M 19.197 2.369 C 19.177 .609 20.656 -.17 22.236 -.17 C 24.176 -.17 25.206 .809 25.206 2.119 C 25.206 3.739 23.607 4.069 23.087 4.2 C 21.296 4.66 20.956 4.73 20.956 5.28 C 20.956 5.88 21.536 6.09 22.036 6.09 C 22.786 6.09 23.397 5.87 23.447 5.01 L 24.966 5.01 C 24.966 6.659 23.597 7.309 22.106 7.309 C 20.816 7.309 19.437 6.609 19.437 5.15 C 19.437 3.809 20.506 3.399 21.566 3.119 C 22.616 2.839 23.687 2.709 23.687 1.939 C 23.687 1.209 22.846 1.049 22.296 1.049 C 21.456 1.049 20.716 1.419 20.716 2.369 Z M 27.827 0 L 29.395 0 L 29.395 5.82 L 31.535 5.82 L 31.535 7.139 L 25.687 7.139 L 25.687 5.82 L 27.827 5.82 Z " fill="#231f20"/>
</g>
<g id="Layer-1" data-name="Artifact">
<path transform="matrix(1,0,0,-1,320.5314,87.93921)" d="M 0 0 L 1.569 0 L 1.569 5.82 L 3.709 5.82 L 3.709 7.139 L -2.14 7.139 L -2.14 5.82 L 0 5.82 Z M 4.577 0 L 6.146 0 L 6.146 3.08 L 9.037 3.08 L 9.037 0 L 10.606 0 L 10.606 7.139 L 9.037 7.139 L 9.037 4.399 L 6.146 4.399 L 6.146 7.139 L 4.577 7.139 Z M 12.115 0 L 13.684 0 L 13.684 2.79 L 15.254 2.79 C 16.045 2.79 16.335 2.46 16.445 1.71 C 16.525 1.14 16.505 .45 16.695 0 L 18.264 0 C 17.984 .4 17.994 1.24 17.964 1.69 C 17.914 2.41 17.694 3.16 16.925 3.359 L 16.925 3.379 C 17.714 3.699 18.054 4.329 18.054 5.17 C 18.054 6.25 17.244 7.139 15.965 7.139 L 12.115 7.139 Z M 13.684 5.92 L 15.404 5.92 C 16.105 5.92 16.485 5.62 16.485 4.929 C 16.485 4.209 16.105 3.909 15.404 3.909 L 13.684 3.909 Z M 19.439 0 L 24.858 0 L 24.858 1.319 L 21.008 1.319 L 21.008 3.07 L 24.467 3.07 L 24.467 4.289 L 21.008 4.289 L 21.008 5.82 L 24.777 5.82 L 24.777 7.139 L 19.439 7.139 Z M 25.462 0 L 27.051 0 L 27.611 1.59 L 30.281 1.59 L 30.821 0 L 32.45 0 L 29.781 7.139 L 28.171 7.139 Z M 28.951 5.379 L 28.971 5.379 L 29.871 2.759 L 28.021 2.759 Z M 34.036 0 L 35.604 0 L 35.604 5.82 L 37.744 5.82 L 37.744 7.139 L 31.896 7.139 L 31.896 5.82 L 34.036 5.82 Z M 38.613 0 L 44.031 0 L 44.031 1.319 L 40.181 1.319 L 40.181 3.07 L 43.641 3.07 L 43.641 4.289 L 40.181 4.289 L 40.181 5.82 L 43.951 5.82 L 43.951 7.139 L 38.613 7.139 Z M 45.268 0 L 46.736 0 L 46.736 4.779 L 46.756 4.779 L 49.728 0 L 51.296 0 L 51.296 7.139 L 49.828 7.139 L 49.828 2.35 L 49.808 2.35 L 46.826 7.139 L 45.268 7.139 Z M 52.806 0 L 58.224 0 L 58.224 1.319 L 54.374 1.319 L 54.374 3.07 L 57.834 3.07 L 57.834 4.289 L 54.374 4.289 L 54.374 5.82 L 58.144 5.82 L 58.144 7.139 L 52.806 7.139 Z M 59.46 0 L 62.54 0 C 64.72 0 65.779 1.539 65.779 3.609 C 65.779 5.98 64.39 7.139 62.54 7.139 L 59.46 7.139 Z M 61.029 5.82 L 62.15 5.82 C 63.71 5.82 64.21 4.9 64.21 3.459 C 64.21 1.879 63.34 1.319 62.43 1.319 L 61.029 1.319 Z " fill="#231f20"/>
<path transform="matrix(1,0,0,-1,338.9093,77.93921)" d="M 0 0 L 1.469 0 L 1.469 4.779 L 1.489 4.779 L 4.46 0 L 6.029 0 L 6.029 7.139 L 4.56 7.139 L 4.56 2.35 L 4.54 2.35 L 1.559 7.139 L 0 7.139 Z M 7.538 0 L 12.957 0 L 12.957 1.319 L 9.107 1.319 L 9.107 3.07 L 12.567 3.07 L 12.567 4.289 L 9.107 4.289 L 9.107 5.82 L 12.877 5.82 L 12.877 7.139 L 7.538 7.139 Z M 13.561 0 L 15.151 0 L 15.711 1.59 L 18.38 1.59 L 18.92 0 L 20.55 0 L 17.88 7.139 L 16.27 7.139 Z M 17.05 5.379 L 17.07 5.379 L 17.97 2.759 L 16.12 2.759 Z M 21.315 0 L 22.884 0 L 22.884 2.79 L 24.454 2.79 C 25.245 2.79 25.535 2.46 25.645 1.71 C 25.725 1.14 25.705 .45 25.895 0 L 27.464 0 C 27.184 .4 27.194 1.24 27.164 1.69 C 27.114 2.41 26.894 3.16 26.125 3.359 L 26.125 3.379 C 26.914 3.699 27.254 4.329 27.254 5.17 C 27.254 6.25 26.444 7.139 25.165 7.139 L 21.315 7.139 Z M 22.884 5.92 L 24.604 5.92 C 25.305 5.92 25.685 5.62 25.685 4.929 C 25.685 4.209 25.305 3.909 24.604 3.909 L 22.884 3.909 Z " fill="#231f20"/>
</g>
<g id="Layer-1" data-name="Artifact">
<path transform="matrix(1,0,0,-1,425.9563,75.80051)" d="M 0 0 L -1.62 0 L -3.229 -5.019 L -3.249 -5.019 L -4.839 0 L -6.459 0 L -4.139 -7.139 L -2.37 -7.139 Z M 6.833 0 L 5.264 0 L 5.264 -4.44 C 5.264 -5.5 4.904 -5.99 3.784 -5.99 C 2.513 -5.99 2.313 -5.22 2.313 -4.44 L 2.313 0 L .744 0 L .744 -4.44 C .744 -6.38 1.863 -7.309 3.784 -7.309 C 5.694 -7.309 6.833 -6.37 6.833 -4.44 Z M 8.31 -7.139 L 13.359 -7.139 L 13.359 -5.82 L 9.879 -5.82 L 9.879 0 L 8.31 0 Z M 14.258 -7.139 L 15.727 -7.139 L 15.727 -2.36 L 15.747 -2.36 L 18.718 -7.139 L 20.287 -7.139 L 20.287 0 L 18.818 0 L 18.818 -4.789 L 18.798 -4.789 L 15.817 0 L 14.258 0 Z M 21.796 -7.139 L 27.215 -7.139 L 27.215 -5.82 L 23.365 -5.82 L 23.365 -4.069 L 26.825 -4.069 L 26.825 -2.85 L 23.365 -2.85 L 23.365 -1.319 L 27.135 -1.319 L 27.135 0 L 21.796 0 Z M 28.451 -7.139 L 30.02 -7.139 L 30.02 -4.349 L 31.59 -4.349 C 32.381 -4.349 32.671 -4.679 32.781 -5.429 C 32.861 -5.999 32.841 -6.689 33.031 -7.139 L 34.6 -7.139 C 34.32 -6.739 34.33 -5.899 34.3 -5.449 C 34.25 -4.729 34.03 -3.979 33.261 -3.779 L 33.261 -3.759 C 34.05 -3.44 34.39 -2.81 34.39 -1.969 C 34.39 -.889 33.58 0 32.301 0 L 28.451 0 Z M 30.02 -1.219 L 31.74 -1.219 C 32.441 -1.219 32.821 -1.519 32.821 -2.209 C 32.821 -2.93 32.441 -3.23 31.74 -3.23 L 30.02 -3.23 Z M 35.209 -7.139 L 36.798 -7.139 L 37.358 -5.549 L 40.028 -5.549 L 40.568 -7.139 L 42.198 -7.139 L 39.528 0 L 37.918 0 Z M 38.698 -1.76 L 38.718 -1.76 L 39.618 -4.38 L 37.768 -4.38 Z M 44.531 -3.959 L 46.242 -3.959 C 46.913 -3.959 47.373 -4.249 47.373 -4.979 C 47.373 -5.72 46.833 -5.92 46.212 -5.92 L 44.531 -5.92 Z M 42.963 -7.139 L 46.422 -7.139 C 47.712 -7.139 48.941 -6.519 48.941 -5.069 C 48.941 -4.179 48.502 -3.509 47.633 -3.26 C 48.252 -2.96 48.602 -2.47 48.602 -1.769 C 48.602 -.44 47.682 0 46.322 0 L 42.963 0 Z M 44.531 -1.219 L 46.002 -1.219 C 46.563 -1.219 47.083 -1.359 47.083 -2.039 C 47.083 -2.64 46.673 -2.89 46.122 -2.89 L 44.531 -2.89 Z M 50.13 -7.139 L 55.178 -7.139 L 55.178 -5.82 L 51.698 -5.82 L 51.698 0 L 50.13 0 Z M 56.078 -7.139 L 61.496 -7.139 L 61.496 -5.82 L 57.646 -5.82 L 57.646 -4.069 L 61.106 -4.069 L 61.106 -2.85 L 57.646 -2.85 L 57.646 -1.319 L 61.416 -1.319 L 61.416 0 L 56.078 0 Z " fill="#231f20"/>
</g>
<g id="Layer-1" data-name="Artifact">
<path transform="matrix(1,0,0,-1,519.746,82.93921)" d="M 0 0 L 5.419 0 L 5.419 1.319 L 1.569 1.319 L 1.569 3.07 L 5.029 3.07 L 5.029 4.289 L 1.569 4.289 L 1.569 5.82 L 5.339 5.82 L 5.339 7.139 L 0 7.139 Z M 6.655 0 L 8.124 0 L 8.124 4.779 L 8.144 4.779 L 11.115 0 L 12.684 0 L 12.684 7.139 L 11.215 7.139 L 11.215 2.35 L 11.195 2.35 L 8.214 7.139 L 6.655 7.139 Z M 14.193 0 L 17.272 0 C 19.453 0 20.512 1.539 20.512 3.609 C 20.512 5.98 19.123 7.139 17.272 7.139 L 14.193 7.139 Z M 15.762 5.82 L 16.882 5.82 C 18.443 5.82 18.943 4.9 18.943 3.459 C 18.943 1.879 18.073 1.319 17.162 1.319 L 15.762 1.319 Z M 20.673 0 L 22.263 0 L 22.823 1.59 L 25.492 1.59 L 26.032 0 L 27.662 0 L 24.992 7.139 L 23.382 7.139 Z M 24.162 5.379 L 24.182 5.379 L 25.082 2.759 L 23.232 2.759 Z M 28.427 0 L 29.896 0 L 29.896 4.779 L 29.916 4.779 L 32.887 0 L 34.456 0 L 34.456 7.139 L 32.987 7.139 L 32.987 2.35 L 32.967 2.35 L 29.986 7.139 L 28.427 7.139 Z M 41.26 0 L 42.26 0 L 42.26 3.859 L 39.26 3.859 L 39.26 2.69 L 40.841 2.69 C 40.751 1.699 40.161 1.149 39.14 1.149 C 37.73 1.149 37.2 2.35 37.2 3.539 C 37.2 4.789 37.73 5.99 39.14 5.99 C 39.881 5.99 40.471 5.58 40.651 4.789 L 42.15 4.789 C 41.98 6.41 40.601 7.309 39.14 7.309 C 36.93 7.309 35.631 5.66 35.631 3.539 C 35.631 1.479 36.93 -.17 39.14 -.17 C 39.831 -.17 40.551 .1 41.101 .809 Z M 43.674 0 L 49.092 0 L 49.092 1.319 L 45.242 1.319 L 45.242 3.07 L 48.702 3.07 L 48.702 4.289 L 45.242 4.289 L 45.242 5.82 L 49.013 5.82 L 49.013 7.139 L 43.674 7.139 Z M 50.329 0 L 51.897 0 L 51.897 2.79 L 53.468 2.79 C 54.258 2.79 54.549 2.46 54.659 1.71 C 54.739 1.14 54.719 .45 54.909 0 L 56.477 0 C 56.198 .4 56.207 1.24 56.177 1.69 C 56.128 2.41 55.908 3.16 55.138 3.359 L 55.138 3.379 C 55.928 3.699 56.267 4.329 56.267 5.17 C 56.267 6.25 55.458 7.139 54.178 7.139 L 50.329 7.139 Z M 51.897 5.92 L 53.618 5.92 C 54.318 5.92 54.699 5.62 54.699 4.929 C 54.699 4.209 54.318 3.909 53.618 3.909 L 51.897 3.909 Z M 57.653 0 L 63.071 0 L 63.071 1.319 L 59.221 1.319 L 59.221 3.07 L 62.681 3.07 L 62.681 4.289 L 59.221 4.289 L 59.221 5.82 L 62.991 5.82 L 62.991 7.139 L 57.653 7.139 Z M 64.307 0 L 67.387 0 C 69.567 0 70.626 1.539 70.626 3.609 C 70.626 5.98 69.237 7.139 67.387 7.139 L 64.307 7.139 Z M 65.876 5.82 L 66.997 5.82 C 68.557 5.82 69.057 4.9 69.057 3.459 C 69.057 1.879 68.187 1.319 67.277 1.319 L 65.876 1.319 Z " fill="#231f20"/>
</g>
<g id="Layer-1" data-name="Artifact">
<path transform="matrix(1,0,0,-1,245.3321,109.5101)" d="M 0 0 L 5.049 0 L 5.049 1.319 L 1.569 1.319 L 1.569 7.139 L 0 7.139 Z M 12.13 4.74 C 11.94 6.39 10.62 7.309 9.05 7.309 C 6.84 7.309 5.541 5.66 5.541 3.539 C 5.541 1.479 6.84 -.17 9.05 -.17 C 10.8 -.17 12.03 .969 12.19 2.749 L 10.67 2.749 C 10.55 1.809 10.01 1.149 9.05 1.149 C 7.64 1.149 7.11 2.349 7.11 3.539 C 7.11 4.79 7.64 5.99 9.05 5.99 C 9.83 5.99 10.51 5.45 10.61 4.74 Z " fill="#231f20"/>
</g>
<g id="Layer-1" data-name="Artifact">
</g>
<path transform="matrix(1,0,0,-1,346.3932,109.5101)" d="M 0 0 L 1.469 0 L 1.469 4.779 L 1.489 4.779 L 4.46 0 L 6.029 0 L 6.029 7.139 L 4.56 7.139 L 4.56 2.35 L 4.54 2.35 L 1.559 7.139 L 0 7.139 Z M 9.037 0 L 10.606 0 L 10.606 5.82 L 12.746 5.82 L 12.746 7.139 L 6.897 7.139 L 6.897 5.82 L 9.037 5.82 Z " fill="#231f20"/>
</g>
<g id="Layer-1" data-name="Artifact">
<clipPath id="cp42">
<path transform="matrix(1,0,0,-1,0,158.74)" d="M 0 0 L 968.451 0 L 968.451 158.74 L 0 158.74 Z "/>
</clipPath>
<g clip-path="url(#cp42)">
<path transform="matrix(1,0,0,-1,453.143,102.37141)" d="M 0 0 L -1.62 0 L -3.229 -5.019 L -3.249 -5.019 L -4.839 0 L -6.459 0 L -4.139 -7.139 L -2.37 -7.139 Z M 6.833 0 L 5.264 0 L 5.264 -4.44 C 5.264 -5.5 4.904 -5.99 3.784 -5.99 C 2.513 -5.99 2.313 -5.22 2.313 -4.44 L 2.313 0 L .744 0 L .744 -4.44 C .744 -6.38 1.863 -7.309 3.784 -7.309 C 5.694 -7.309 6.833 -6.37 6.833 -4.44 Z " fill="#231f20"/>
</g>
<g id="Layer-1" data-name="Artifact">
</g>
<path transform="matrix(1,0,0,-1,548.5723,109.5101)" d="M 0 0 L 5.419 0 L 5.419 1.319 L 1.569 1.319 L 1.569 3.07 L 5.029 3.07 L 5.029 4.289 L 1.569 4.289 L 1.569 5.82 L 5.339 5.82 L 5.339 7.139 L 0 7.139 Z M 6.655 0 L 8.124 0 L 8.124 4.779 L 8.144 4.779 L 11.115 0 L 12.684 0 L 12.684 7.139 L 11.215 7.139 L 11.215 2.35 L 11.195 2.35 L 8.214 7.139 L 6.655 7.139 Z " fill="#231f20"/>
</g>
<path transform="matrix(1,0,0,-1,0,158.74)" d="M 0 63.993 L 97.688 63.993 L 97.688 94.748 L 0 94.748 Z " fill="#808285"/>
<path transform="matrix(1,0,0,-1,0,158.74)" d="M 101.214 63.993 L 198.90201 63.993 L 198.90201 94.748 L 101.214 94.748 Z " fill="#808285"/>
<path transform="matrix(1,0,0,-1,0,158.74)" d="M 870.763 63.993 L 968.451 63.993 L 968.451 94.748 L 870.763 94.748 Z " fill="#231f20"/>
<g id="Layer-1" data-name="Artifact">
<clipPath id="cp43">
<path transform="matrix(1,0,0,-1,0,158.74)" d="M 0 0 L 968.451 0 L 968.451 158.74 L 0 158.74 Z "/>
</clipPath>
<g clip-path="url(#cp43)">
<path transform="matrix(1,0,0,-1,19.8857,87.93921)" d="M 0 0 L 5.419 0 L 5.419 1.319 L 1.569 1.319 L 1.569 3.07 L 5.029 3.07 L 5.029 4.289 L 1.569 4.289 L 1.569 5.82 L 5.339 5.82 L 5.339 7.139 L 0 7.139 Z M 12.438 7.139 L 10.818 7.139 L 9.208 2.12 L 9.188 2.12 L 7.599 7.139 L 5.979 7.139 L 8.298 0 L 10.068 0 Z M 11.954 0 L 13.544 0 L 14.103 1.59 L 16.773 1.59 L 17.313 0 L 18.943 0 L 16.273 7.139 L 14.663 7.139 Z M 15.443 5.379 L 15.463 5.379 L 16.363 2.759 L 14.513 2.759 Z M 19.708 0 L 24.757 0 L 24.757 1.319 L 21.277 1.319 L 21.277 7.139 L 19.708 7.139 Z M 31.637 7.139 L 30.069 7.139 L 30.069 2.699 C 30.069 1.639 29.709 1.149 28.588 1.149 C 27.318 1.149 27.117 1.919 27.117 2.699 L 27.117 7.139 L 25.549 7.139 L 25.549 2.699 C 25.549 .759 26.668 -.17 28.588 -.17 C 30.498 -.17 31.637 .769 31.637 2.699 Z M 32.082 0 L 33.671 0 L 34.231 1.59 L 36.901 1.59 L 37.441 0 L 39.07 0 L 36.401 7.139 L 34.791 7.139 Z M 35.571 5.379 L 35.591 5.379 L 36.491 2.759 L 34.641 2.759 Z M 40.656 0 L 42.224 0 L 42.224 5.82 L 44.364 5.82 L 44.364 7.139 L 38.516 7.139 L 38.516 5.82 L 40.656 5.82 Z M 45.233 0 L 50.651 0 L 50.651 1.319 L 46.801 1.319 L 46.801 3.07 L 50.261 3.07 L 50.261 4.289 L 46.801 4.289 L 46.801 5.82 L 50.571 5.82 L 50.571 7.139 L 45.233 7.139 Z M 51.888 0 L 54.967 0 C 57.147 0 58.206 1.539 58.206 3.609 C 58.206 5.98 56.817 7.139 54.967 7.139 L 51.888 7.139 Z M 53.456 5.82 L 54.577 5.82 C 56.137 5.82 56.638 4.9 56.638 3.459 C 56.638 1.879 55.767 1.319 54.857 1.319 L 53.456 1.319 Z " fill="#ffffff"/>
<path transform="matrix(1,0,0,-1,38.8595,77.93921)" d="M 0 0 L 1.469 0 L 1.469 4.779 L 1.489 4.779 L 4.46 0 L 6.029 0 L 6.029 7.139 L 4.56 7.139 L 4.56 2.35 L 4.54 2.35 L 1.559 7.139 L 0 7.139 Z M 7.204 3.539 C 7.204 1.479 8.503 -.17 10.713 -.17 C 12.924 -.17 14.223 1.479 14.223 3.539 C 14.223 5.66 12.924 7.309 10.713 7.309 C 8.503 7.309 7.204 5.66 7.204 3.539 M 8.773 3.539 C 8.773 4.79 9.303 5.99 10.713 5.99 C 12.124 5.99 12.654 4.79 12.654 3.539 C 12.654 2.349 12.124 1.149 10.713 1.149 C 9.303 1.149 8.773 2.349 8.773 3.539 M 16.82 0 L 18.389 0 L 18.389 5.82 L 20.529 5.82 L 20.529 7.139 L 14.68 7.139 L 14.68 5.82 L 16.82 5.82 Z " fill="#ffffff"/>
</g>
<g id="Layer-1" data-name="Artifact">
<path transform="matrix(1,0,0,-1,123.7677,87.93921)" d="M 0 0 L 3.079 0 C 5.26 0 6.319 1.539 6.319 3.609 C 6.319 5.98 4.93 7.139 3.079 7.139 L 0 7.139 Z M 1.569 5.82 L 2.689 5.82 C 4.25 5.82 4.75 4.9 4.75 3.459 C 4.75 1.879 3.88 1.319 2.969 1.319 L 1.569 1.319 Z M 7.523 0 L 12.942 0 L 12.942 1.319 L 9.092 1.319 L 9.092 3.07 L 12.552 3.07 L 12.552 4.289 L 9.092 4.289 L 9.092 5.82 L 12.862 5.82 L 12.862 7.139 L 7.523 7.139 Z M 14.178 0 L 15.747 0 L 15.747 2.95 L 18.737 2.95 L 18.737 4.169 L 15.747 4.169 L 15.747 5.82 L 19.197 5.82 L 19.197 7.139 L 14.178 7.139 Z M 20.133 0 L 21.702 0 L 21.702 7.139 L 20.133 7.139 Z M 29.465 4.74 C 29.275 6.39 27.955 7.309 26.385 7.309 C 24.175 7.309 22.876 5.66 22.876 3.539 C 22.876 1.479 24.175 -.17 26.385 -.17 C 28.135 -.17 29.365 .969 29.525 2.749 L 28.005 2.749 C 27.885 1.809 27.345 1.149 26.385 1.149 C 24.975 1.149 24.445 2.349 24.445 3.539 C 24.445 4.79 24.975 5.99 26.385 5.99 C 27.165 5.99 27.845 5.45 27.945 4.74 Z M 30.676 0 L 32.245 0 L 32.245 7.139 L 30.676 7.139 Z M 33.74 0 L 39.158 0 L 39.158 1.319 L 35.308 1.319 L 35.308 3.07 L 38.768 3.07 L 38.768 4.289 L 35.308 4.289 L 35.308 5.82 L 39.078 5.82 L 39.078 7.139 L 33.74 7.139 Z M 40.395 0 L 41.863 0 L 41.863 4.779 L 41.883 4.779 L 44.855 0 L 46.423 0 L 46.423 7.139 L 44.955 7.139 L 44.955 2.35 L 44.935 2.35 L 41.953 7.139 L 40.395 7.139 Z M 49.432 0 L 51 0 L 51 5.82 L 53.14 5.82 L 53.14 7.139 L 47.292 7.139 L 47.292 5.82 L 49.432 5.82 Z " fill="#ffffff"/>
<path transform="matrix(1,0,0,-1,137.8441,77.93921)" d="M 0 0 L 3.079 0 C 5.26 0 6.319 1.539 6.319 3.609 C 6.319 5.98 4.93 7.139 3.079 7.139 L 0 7.139 Z M 1.569 5.82 L 2.689 5.82 C 4.25 5.82 4.75 4.9 4.75 3.459 C 4.75 1.879 3.88 1.319 2.969 1.319 L 1.569 1.319 Z M 6.48 0 L 8.07 0 L 8.63 1.59 L 11.299 1.59 L 11.839 0 L 13.469 0 L 10.799 7.139 L 9.189 7.139 Z M 9.969 5.379 L 9.989 5.379 L 10.889 2.759 L 9.039 2.759 Z M 15.054 0 L 16.623 0 L 16.623 5.82 L 18.763 5.82 L 18.763 7.139 L 12.914 7.139 L 12.914 5.82 L 15.054 5.82 Z M 18.199 0 L 19.789 0 L 20.348 1.59 L 23.018 1.59 L 23.558 0 L 25.188 0 L 22.518 7.139 L 20.908 7.139 Z M 21.688 5.379 L 21.708 5.379 L 22.608 2.759 L 20.758 2.759 Z " fill="#ffffff"/>
</g>
<g id="Layer-1" data-name="Artifact">
<path transform="matrix(1,0,0,-1,898.2665,82.93921)" d="M 0 0 L 5.419 0 L 5.419 1.319 L 1.569 1.319 L 1.569 3.07 L 5.029 3.07 L 5.029 4.289 L 1.569 4.289 L 1.569 5.82 L 5.339 5.82 L 5.339 7.139 L 0 7.139 Z M 6.028 0 L 7.798 0 L 9.387 2.47 L 10.947 0 L 12.817 0 L 10.327 3.73 L 12.617 7.139 L 10.897 7.139 L 9.447 4.86 L 8.048 7.139 L 6.228 7.139 L 8.527 3.74 Z M 15.341 0 L 16.91 0 L 16.91 5.82 L 19.05 5.82 L 19.05 7.139 L 13.201 7.139 L 13.201 5.82 L 15.341 5.82 Z M 19.918 0 L 21.487 0 L 21.487 7.139 L 19.918 7.139 Z M 22.982 0 L 24.451 0 L 24.451 4.779 L 24.471 4.779 L 27.442 0 L 29.01 0 L 29.01 7.139 L 27.542 7.139 L 27.542 2.35 L 27.522 2.35 L 24.541 7.139 L 22.982 7.139 Z M 36.774 4.74 C 36.584 6.39 35.264 7.309 33.694 7.309 C 31.485 7.309 30.186 5.66 30.186 3.539 C 30.186 1.479 31.485 -.17 33.694 -.17 C 35.444 -.17 36.674 .969 36.834 2.749 L 35.315 2.749 C 35.194 1.809 34.654 1.149 33.694 1.149 C 32.284 1.149 31.754 2.349 31.754 3.539 C 31.754 4.79 32.284 5.99 33.694 5.99 C 34.474 5.99 35.154 5.45 35.254 4.74 Z M 39.533 0 L 41.101 0 L 41.101 5.82 L 43.241 5.82 L 43.241 7.139 L 37.393 7.139 L 37.393 5.82 L 39.533 5.82 Z " fill="#ffffff"/>
</g>
<g id="Layer-1" data-name="Artifact">
</g>
<path transform="matrix(1,0,0,-1,913.5739,109.5101)" d="M 0 0 L 5.419 0 L 5.419 1.319 L 1.569 1.319 L 1.569 3.07 L 5.029 3.07 L 5.029 4.289 L 1.569 4.289 L 1.569 5.82 L 5.339 5.82 L 5.339 7.139 L 0 7.139 Z M 6.028 0 L 7.798 0 L 9.387 2.47 L 10.947 0 L 12.817 0 L 10.327 3.73 L 12.617 7.139 L 10.897 7.139 L 9.447 4.86 L 8.048 7.139 L 6.228 7.139 L 8.527 3.74 Z " fill="#231f20"/>
</g>
<g id="Layer-1" data-name="Artifact">
<clipPath id="cp44">
<path transform="matrix(1,0,0,-1,0,158.74)" d="M 0 0 L 968.451 0 L 968.451 158.74 L 0 158.74 Z "/>
</clipPath>
<g clip-path="url(#cp44)">
<path transform="matrix(1,0,0,-1,143.282,109.5101)" d="M 0 0 L 3.079 0 C 5.26 0 6.319 1.539 6.319 3.609 C 6.319 5.98 4.93 7.139 3.079 7.139 L 0 7.139 Z M 1.569 5.82 L 2.689 5.82 C 4.25 5.82 4.75 4.9 4.75 3.459 C 4.75 1.879 3.88 1.319 2.969 1.319 L 1.569 1.319 Z M 7.523 0 L 10.602 0 C 12.783 0 13.842 1.539 13.842 3.609 C 13.842 5.98 12.453 7.139 10.602 7.139 L 7.523 7.139 Z M 9.092 5.82 L 10.212 5.82 C 11.773 5.82 12.273 4.9 12.273 3.459 C 12.273 1.879 11.403 1.319 10.492 1.319 L 9.092 1.319 Z " fill="#231f20"/>
</g>
<g id="Layer-1" data-name="Artifact">
</g>
<path transform="matrix(1,0,0,-1,42.5255,109.5101)" d="M 0 0 L 1.469 0 L 1.469 4.779 L 1.489 4.779 L 4.46 0 L 6.029 0 L 6.029 7.139 L 4.56 7.139 L 4.56 2.35 L 4.54 2.35 L 1.559 7.139 L 0 7.139 Z M 7.538 0 L 12.957 0 L 12.957 1.319 L 9.107 1.319 L 9.107 3.07 L 12.567 3.07 L 12.567 4.289 L 9.107 4.289 L 9.107 5.82 L 12.877 5.82 L 12.877 7.139 L 7.538 7.139 Z " fill="#231f20"/>
</g>
<g id="Layer-1" data-name="Artifact">
<clipPath id="cp45">
<path transform="matrix(1,0,0,-1,0,158.74)" d="M 0 0 L 968.451 0 L 968.451 158.74 L 0 158.74 Z "/>
</clipPath>
<g clip-path="url(#cp45)">
<path transform="matrix(1,0,0,-1,0,158.74)" d="M 787.996 70.801 L 789.56497 70.801 L 789.56497 77.94 L 787.996 77.94 Z M 791.06 70.801 L 792.529 70.801 L 792.529 75.58 L 792.549 75.58 L 795.52 70.801 L 797.089 70.801 L 797.089 77.94 L 795.62 77.94 L 795.62 73.15 L 795.6 73.15 L 792.619 77.94 L 791.06 77.94 Z M 802.83 70.801 L 804.399 70.801 L 804.399 76.621 L 806.539 76.621 L 806.539 77.94 L 800.69 77.94 L 800.69 76.621 L 802.83 76.621 Z M 807.407 70.801 L 808.976 70.801 L 808.976 73.881 L 811.867 73.881 L 811.867 70.801 L 813.436 70.801 L 813.436 77.94 L 811.867 77.94 L 811.867 75.2 L 808.976 75.2 L 808.976 77.94 L 807.407 77.94 Z M 814.945 70.801 L 820.364 70.801 L 820.364 72.12 L 816.514 72.12 L 816.514 73.871 L 819.974 73.871 L 819.974 75.09 L 816.514 75.09 L 816.514 76.621 L 820.284 76.621 L 820.284 77.94 L 814.945 77.94 Z M 832.924 77.94 L 831.384 77.94 L 830.214 73.02 L 830.194 73.02 L 828.974 77.94 L 827.504 77.94 L 826.264 73.08 L 826.244 73.08 L 825.115 77.94 L 823.545 77.94 L 825.435 70.801 L 827.024 70.801 L 828.214 75.66 L 828.234 75.66 L 829.444 70.801 L 831.004 70.801 Z M 833.75 70.801 L 835.319 70.801 L 835.319 77.94 L 833.75 77.94 Z M 836.814 70.801 L 841.862 70.801 L 841.862 72.12 L 838.382 72.12 L 838.382 77.94 L 836.814 77.94 Z M 842.761 70.801 L 845.841 70.801 C 848.021 70.801 849.08 72.34 849.08 74.41 C 849.08 76.781 847.691 77.94 845.841 77.94 L 842.761 77.94 Z M 844.33 76.621 L 845.451 76.621 C 847.011 76.621 847.511 75.701 847.511 74.26 C 847.511 72.68 846.641 72.12 845.731 72.12 L 844.33 72.12 Z " fill="#231f20"/>
<path transform="matrix(1,0,0,-1,797.0524,77.93921)" d="M 0 0 L 5.419 0 L 5.419 1.319 L 1.569 1.319 L 1.569 3.07 L 5.029 3.07 L 5.029 4.289 L 1.569 4.289 L 1.569 5.82 L 5.339 5.82 L 5.339 7.139 L 0 7.139 Z M 6.028 0 L 7.798 0 L 9.387 2.47 L 10.947 0 L 12.817 0 L 10.327 3.73 L 12.617 7.139 L 10.897 7.139 L 9.447 4.86 L 8.048 7.139 L 6.228 7.139 L 8.527 3.74 Z M 15.341 0 L 16.91 0 L 16.91 5.82 L 19.05 5.82 L 19.05 7.139 L 13.201 7.139 L 13.201 5.82 L 15.341 5.82 Z M 19.918 0 L 21.487 0 L 21.487 7.139 L 19.918 7.139 Z M 22.982 0 L 24.451 0 L 24.451 4.779 L 24.471 4.779 L 27.442 0 L 29.01 0 L 29.01 7.139 L 27.542 7.139 L 27.542 2.35 L 27.522 2.35 L 24.541 7.139 L 22.982 7.139 Z M 36.774 4.74 C 36.584 6.39 35.264 7.309 33.694 7.309 C 31.485 7.309 30.186 5.66 30.186 3.539 C 30.186 1.479 31.485 -.17 33.694 -.17 C 35.444 -.17 36.674 .969 36.834 2.749 L 35.315 2.749 C 35.194 1.809 34.654 1.149 33.694 1.149 C 32.284 1.149 31.754 2.349 31.754 3.539 C 31.754 4.79 32.284 5.99 33.694 5.99 C 34.474 5.99 35.154 5.45 35.254 4.74 Z M 39.533 0 L 41.101 0 L 41.101 5.82 L 43.241 5.82 L 43.241 7.139 L 37.393 7.139 L 37.393 5.82 L 39.533 5.82 Z " fill="#231f20"/>
</g>
<g id="Layer-1" data-name="Artifact">
</g>
<path transform="matrix(1,0,0,-1,811.0183,109.5101)" d="M 0 0 L 5.419 0 L 5.419 1.319 L 1.569 1.319 L 1.569 3.07 L 5.029 3.07 L 5.029 4.289 L 1.569 4.289 L 1.569 5.82 L 5.339 5.82 L 5.339 7.139 L 0 7.139 Z M 15.41 7.139 L 13.87 7.139 L 12.7 2.22 L 12.68 2.22 L 11.46 7.139 L 9.99 7.139 L 8.751 2.28 L 8.731 2.28 L 7.601 7.139 L 6.031 7.139 L 7.921 0 L 9.51 0 L 10.7 4.859 L 10.72 4.859 L 11.93 0 L 13.49 0 Z " fill="#231f20"/>
</g>
<g id="Layer-1" data-name="Artifact">
<clipPath id="cp46">
<path transform="matrix(1,0,0,-1,0,158.74)" d="M 0 0 L 968.451 0 L 968.451 158.74 L 0 158.74 Z "/>
</clipPath>
<g clip-path="url(#cp46)">
<path transform="matrix(1,0,0,-1,766.0211,79.368709)" d="M 0 0 L 0 79.369 L -80.718 79.369 L -80.718 79.335 C -123.923 78.613 -158.737 43.386 -158.737 -.004 C -158.737 -43.839 -123.2 -79.371 -79.372 -79.371 C -35.673 -79.371 -.227 -44.056 -.008 -.408 L 0 -.408 L 0 -.078 C 0 -.053 .002 -.029 .002 -.004 C .002 -.003 0 -.001 0 0 " fill="#ee2c24"/>
<path transform="matrix(1,0,0,-1,762.7349,29.766602)" d="M 0 0 C -.001 .632 -.479 1.049 -1.029 1.048 C -1.584 1.047 -2.06 .628 -2.059 -.004 C -2.058 -.601 -1.628 -1.053 -1.025 -1.052 C -.475 -1.051 .001 -.632 0 0 M -.224 0 C -.223 -.514 -.576 -.868 -1.025 -.869 C -1.524 -.87 -1.834 -.48 -1.835 -.003 C -1.835 .508 -1.482 .865 -1.028 .866 C -.579 .866 -.225 .511 -.224 0 M -1.363 -.002 C -1.364 .231 -1.235 .419 -.999 .419 C -.839 .42 -.719 .322 -.69 .178 L -.5 .179 C -.537 .454 -.744 .602 -1 .602 C -1.364 .598 -1.588 .337 -1.588 -.003 C -1.587 -.365 -1.351 -.637 -.992 -.636 C -.745 -.636 -.543 -.47 -.496 -.203 L -.69 -.203 C -.709 -.349 -.827 -.453 -.992 -.454 C -1.22 -.454 -1.363 -.247 -1.363 -.002 M -1.811 -3.209 C -1.815 -.84 -3.221 .584 -5.567 .58 L -8.855 .574 L -8.842 -7.081 L -5.553 -7.075 C -3.229 -7.071 -1.807 -5.717 -1.811 -3.209 M -3.803 -3.202 C -3.801 -4.735 -4.4 -5.325 -5.91 -5.36 L -6.853 -5.362 L -6.86 -1.138 L -5.917 -1.136 C -4.557 -1.134 -3.806 -1.808 -3.803 -3.202 M -4.651 14.257 C -3.119 15.744 -2.792 17.895 -3.923 19.061 C -5.052 20.228 -7.212 19.968 -8.744 18.482 C -10.277 16.995 -10.603 14.845 -9.473 13.678 C -8.343 12.511 -6.184 12.77 -4.651 14.257 M -9.168 18.728 C -7.636 20.215 -7.309 22.367 -8.44 23.533 C -9.569 24.7 -11.728 24.44 -13.261 22.953 C -14.793 21.466 -15.12 19.316 -13.99 18.149 C -12.859 16.982 -10.701 17.241 -9.168 18.728 M -16.433 17.577 C -14.901 19.063 -14.574 21.215 -15.704 22.381 C -16.834 23.548 -18.994 23.289 -20.526 21.802 C -22.058 20.315 -22.384 18.164 -21.254 16.997 C -20.124 15.83 -17.964 16.09 -16.433 17.577 M -17.898 15.85 C -21.234 15.844 -23.934 13.133 -23.928 9.795 C -23.922 6.457 -21.213 3.754 -17.877 3.76 C -14.54 3.765 -11.841 6.478 -11.847 9.815 C -11.852 13.154 -14.562 15.856 -17.898 15.85 M -25.74 -7.723 C -25.75 -2.365 -30.097 1.969 -35.45 1.96 C -40.802 1.951 -45.133 -2.399 -45.124 -7.757 C -45.115 -13.114 -40.768 -17.449 -35.416 -17.439 C -30.063 -17.43 -25.731 -13.08 -25.74 -7.723 M -34.319 -5.732 L -35.592 -5.734 C -35.652 -5.663 -35.714 -5.595 -35.779 -5.53 C -36.345 -4.966 -37.125 -4.618 -37.987 -4.619 C -38.849 -4.621 -39.627 -4.972 -40.191 -5.538 C -40.755 -6.104 -41.102 -6.885 -41.101 -7.747 C -41.099 -8.61 -40.75 -9.389 -40.184 -9.953 C -39.617 -10.518 -38.838 -10.865 -37.976 -10.864 C -37.114 -10.862 -36.336 -10.512 -35.772 -9.946 C -35.734 -9.908 -35.698 -9.869 -35.662 -9.83 L -34.364 -9.828 C -35.085 -11.076 -36.432 -11.918 -37.977 -11.92 C -40.284 -11.924 -42.158 -10.056 -42.162 -7.747 C -42.166 -5.437 -40.299 -3.563 -37.992 -3.558 C -36.409 -3.556 -35.03 -4.434 -34.319 -5.732 M -36.687 -7.796 C -36.687 -7.878 -36.677 -7.957 -36.658 -8.035 C -36.638 -8.112 -36.608 -8.182 -36.566 -8.244 C -36.524 -8.306 -36.469 -8.356 -36.401 -8.393 C -36.334 -8.43 -36.252 -8.448 -36.155 -8.448 C -36.024 -8.448 -35.922 -8.408 -35.848 -8.327 C -35.774 -8.247 -35.729 -8.141 -35.713 -8.01 L -35.298 -8.009 C -35.308 -8.131 -35.337 -8.242 -35.382 -8.34 C -35.427 -8.439 -35.487 -8.523 -35.562 -8.592 C -35.636 -8.662 -35.724 -8.715 -35.824 -8.751 C -35.924 -8.788 -36.034 -8.806 -36.155 -8.807 C -36.304 -8.807 -36.439 -8.781 -36.558 -8.729 C -36.677 -8.678 -36.778 -8.606 -36.86 -8.515 C -36.943 -8.424 -37.006 -8.317 -37.05 -8.194 C -37.093 -8.071 -37.115 -7.939 -37.116 -7.796 C -37.116 -7.65 -37.095 -7.515 -37.051 -7.39 C -37.007 -7.265 -36.945 -7.156 -36.863 -7.063 C -36.781 -6.97 -36.68 -6.896 -36.561 -6.843 C -36.442 -6.79 -36.308 -6.763 -36.158 -6.763 C -36.051 -6.763 -35.949 -6.779 -35.853 -6.809 C -35.758 -6.84 -35.672 -6.885 -35.596 -6.944 C -35.52 -7.003 -35.458 -7.077 -35.409 -7.164 C -35.359 -7.252 -35.328 -7.352 -35.315 -7.465 L -35.731 -7.466 C -35.738 -7.416 -35.755 -7.371 -35.78 -7.33 C -35.806 -7.289 -35.838 -7.253 -35.876 -7.222 C -35.914 -7.192 -35.958 -7.167 -36.006 -7.15 C -36.054 -7.133 -36.105 -7.124 -36.158 -7.124 C -36.254 -7.124 -36.336 -7.143 -36.404 -7.181 C -36.471 -7.218 -36.525 -7.269 -36.567 -7.332 C -36.609 -7.395 -36.639 -7.466 -36.658 -7.546 C -36.677 -7.627 -36.687 -7.71 -36.687 -7.796 M -37.774 -8.027 L -37.776 -6.813 L -37.347 -6.812 L -37.345 -8.026 C -37.344 -8.291 -37.418 -8.487 -37.565 -8.616 C -37.713 -8.745 -37.917 -8.81 -38.177 -8.81 C -38.442 -8.811 -38.646 -8.747 -38.791 -8.62 C -38.937 -8.493 -39.009 -8.296 -39.01 -8.029 L -39.012 -6.815 L -38.583 -6.814 L -38.581 -8.029 C -38.581 -8.082 -38.576 -8.134 -38.567 -8.184 C -38.557 -8.236 -38.538 -8.281 -38.509 -8.32 C -38.48 -8.359 -38.439 -8.391 -38.387 -8.415 C -38.335 -8.44 -38.265 -8.452 -38.178 -8.452 C -38.025 -8.452 -37.919 -8.417 -37.861 -8.349 C -37.803 -8.28 -37.774 -8.173 -37.774 -8.027 M -39.752 -8.769 L -39.755 -6.816 L -39.326 -6.815 L -39.323 -8.768 Z M -33.41 -8.758 L -33.84 -8.759 L -34.654 -7.453 L -34.659 -7.453 L -34.657 -8.76 L -35.059 -8.761 L -35.062 -6.808 L -34.636 -6.807 L -33.819 -8.116 L -33.813 -8.116 L -33.816 -6.806 L -33.414 -6.805 Z M -25.883 13.411 L -25.887 23.05 L -35.532 23.033 C -40.852 23.024 -45.156 18.7 -45.147 13.377 C -45.138 8.053 -40.818 3.745 -35.498 3.754 C -30.179 3.763 -25.873 8.086 -25.883 13.411 M -19.6 .555 L -23.499 .548 L -23.486 -7.106 L -21.494 -7.103 L -21.498 -4.315 L -19.988 -4.313 C -19.056 -4.311 -18.926 -5.104 -18.871 -5.876 C -18.849 -6.09 -18.816 -6.841 -18.644 -7.098 L -16.673 -7.094 C -16.942 -6.816 -16.976 -5.69 -16.998 -5.369 C -17.063 -4.64 -17.3 -3.729 -18.115 -3.537 L -18.115 -3.516 C -17.312 -3.204 -16.917 -2.42 -16.918 -1.595 C -16.921 -.051 -18.25 .557 -19.6 .555 M -19.919 -1.043 C -19.362 -1.042 -18.911 -1.298 -18.91 -1.867 C -18.909 -2.445 -19.23 -2.768 -19.83 -2.769 L -21.501 -2.772 L -21.504 -1.046 Z M -21.492 -7.889 L -23.485 -7.893 L -23.471 -15.547 L -17.912 -15.537 L -17.915 -13.822 L -21.482 -13.828 Z M -15.375 -7.878 L -17.368 -7.882 L -17.354 -15.536 L -15.362 -15.533 Z M -9.96 11.264 C -11.492 9.778 -11.818 7.627 -10.688 6.46 C -9.558 5.293 -7.399 5.553 -5.868 7.039 C -4.334 8.526 -4.008 10.677 -5.139 11.845 C -6.268 13.011 -8.427 12.751 -9.96 11.264 M -13.977 -5.374 L -13.979 -3.916 L -10.23 -3.91 L -10.233 -2.366 L -13.982 -2.372 L -13.984 -1.033 L -9.881 -1.025 L -9.884 .572 L -15.979 .561 L -15.966 -7.093 L -9.764 -7.082 L -9.767 -5.367 Z M -12.86 -12.956 L -14.852 -12.959 C -14.838 -14.921 -13.284 -15.69 -11.527 -15.687 C -9.845 -15.684 -8.196 -15.059 -8.2 -13.119 C -8.202 -11.736 -9.317 -11.223 -10.421 -10.915 C -11.536 -10.605 -12.639 -10.5 -12.64 -9.911 C -12.641 -9.407 -12.106 -9.256 -11.677 -9.255 C -11.067 -9.254 -10.413 -9.478 -10.444 -10.175 L -8.451 -10.171 C -8.465 -8.445 -9.998 -7.708 -11.519 -7.711 C -12.955 -7.713 -14.635 -8.37 -14.633 -10.043 C -14.63 -11.447 -13.483 -11.938 -12.39 -12.247 C -11.286 -12.556 -10.193 -12.683 -10.192 -13.358 C -10.191 -13.927 -10.812 -14.142 -11.412 -14.143 C -12.258 -14.145 -12.816 -13.856 -12.86 -12.956 M -8.463 -9.582 L -6.181 -9.578 L -6.171 -15.517 L -4.178 -15.513 L -4.189 -9.574 L -1.907 -9.57 L -1.91 -7.855 L -8.466 -7.866 Z " fill="#ffffff"/>
</g>
<path transform="matrix(1,0,0,-1,747.5754,71.870807)" d="M 0 0 L 7.652 -7.498 L 0 -14.998 L 3.627 -14.998 L 11.292 -7.498 L 3.62 0 Z " fill="#ffffff"/>
<path transform="matrix(1,0,0,-1,625.0459,71.870807)" d="M 0 0 L -7.652 -7.498 L 0 -14.998 L -3.627 -14.998 L -11.292 -7.498 L -3.62 0 Z " fill="#ffffff"/>
</g>
<g id="Layer-1" data-name="Artifact">
<clipPath id="cp47">
<path transform="matrix(1,0,0,-1,0,158.74)" d="M 0 0 L 968.451 0 L 968.451 158.74 L 0 158.74 Z "/>
</clipPath>
<g clip-path="url(#cp47)">
<path transform="matrix(1,0,0,-1,679.6218,106.3168)" d="M 0 0 C 0 -1.22 .308 -2.181 .923 -2.881 C 1.538 -3.579 2.384 -3.927 3.459 -3.927 C 4.328 -3.927 5.041 -3.669 5.597 -3.153 C 6.153 -2.637 6.499 -1.967 6.634 -1.143 L 5.065 -1.143 C 4.962 -1.533 4.831 -1.825 4.674 -2.02 C 4.39 -2.382 3.977 -2.563 3.435 -2.563 C 2.907 -2.563 2.472 -2.352 2.129 -1.93 C 1.786 -1.508 1.615 -.873 1.615 -.026 C 1.615 .822 1.777 1.477 2.102 1.941 C 2.427 2.404 2.871 2.635 3.433 2.635 C 3.986 2.635 4.403 2.471 4.684 2.143 C 4.841 1.958 4.97 1.685 5.071 1.323 L 6.65 1.323 C 6.626 1.794 6.454 2.264 6.132 2.733 C 5.551 3.567 4.631 3.984 3.373 3.984 C 2.433 3.984 1.659 3.673 1.05 3.051 C .35 2.336 0 1.319 0 0 M 11.235 2.528 C 11.56 2.528 11.803 2.483 11.966 2.394 C 12.255 2.237 12.399 1.929 12.399 1.471 C 12.399 1.048 12.25 .764 11.951 .62 C 11.782 .538 11.529 .497 11.191 .497 L 9.492 .497 L 9.492 2.528 Z M 11.564 3.84 L 7.949 3.84 L 7.949 -3.717 L 9.492 -3.717 L 9.492 -.754 L 11.034 -.754 C 11.474 -.754 11.774 -.834 11.934 -.995 C 12.094 -1.155 12.177 -1.477 12.184 -1.958 L 12.194 -2.661 C 12.197 -2.883 12.22 -3.1 12.261 -3.312 C 12.281 -3.415 12.315 -3.55 12.363 -3.717 L 14.106 -3.717 L 14.106 -3.527 C 13.954 -3.435 13.856 -3.292 13.815 -3.097 C 13.787 -2.974 13.773 -2.74 13.773 -2.394 L 13.773 -1.887 C 13.773 -1.357 13.7 -.963 13.555 -.705 C 13.41 -.447 13.163 -.248 12.814 -.108 C 13.231 .036 13.53 .281 13.712 .628 C 13.893 .975 13.983 1.328 13.983 1.687 C 13.983 1.984 13.937 2.249 13.843 2.481 C 13.75 2.714 13.623 2.926 13.463 3.117 C 13.27 3.35 13.034 3.526 12.756 3.645 C 12.478 3.765 12.08 3.83 11.564 3.84 " fill="#ffffff"/>
<path transform="matrix(1,0,0,-1,638.5215,82.558307)" d="M 0 0 L -8.709 0 L -8.709 -11.875 L .29 -11.875 L .29 -9.74 L -6.284 -9.74 L -6.284 -6.687 L -.516 -6.687 L -.516 -4.625 L -6.284 -4.625 L -6.284 -2.103 L 0 -2.103 Z M 2.154 -11.875 L 4.466 -11.875 L 4.466 -3.449 L 9.3 -11.875 L 11.781 -11.875 L 11.781 0 L 9.469 0 L 9.469 -8.28 L 4.755 0 L 2.154 0 Z M 18.863 -2.063 C 19.993 -2.063 20.747 -2.386 21.127 -3.033 C 21.506 -3.681 21.695 -4.608 21.695 -5.817 C 21.695 -6.692 21.569 -7.447 21.316 -8.081 C 20.854 -9.236 20.036 -9.813 18.863 -9.813 L 16.571 -9.813 L 16.571 -2.063 Z M 19.283 0 L 14.162 0 L 14.162 -11.875 L 19.283 -11.875 C 21.078 -11.875 22.406 -11.137 23.266 -9.66 C 23.9 -8.564 24.217 -7.227 24.217 -5.648 C 24.217 -5.025 24.142 -4.369 23.991 -3.682 C 23.841 -2.994 23.559 -2.355 23.145 -1.764 C 22.629 -1.034 21.954 -.532 21.121 -.258 C 20.632 -.097 20.019 -.011 19.283 0 M 30.296 -2.715 L 31.796 -7.388 L 28.755 -7.388 Z M 24.679 -11.875 L 27.275 -11.875 L 28.08 -9.434 L 32.453 -9.434 L 33.236 -11.875 L 35.927 -11.875 L 31.726 0 L 28.918 0 Z M 37.363 -11.875 L 39.675 -11.875 L 39.675 -3.449 L 44.51 -11.875 L 46.991 -11.875 L 46.991 0 L 44.678 0 L 44.678 -8.28 L 39.964 0 L 37.363 0 Z M 59.82 -3.706 C 59.686 -2.562 59.161 -1.607 58.245 -.842 C 57.329 -.077 56.117 .306 54.608 .306 C 52.867 .306 51.468 -.274 50.41 -1.433 C 49.352 -2.592 48.823 -4.133 48.823 -6.054 C 48.823 -7.955 49.347 -9.452 50.394 -10.547 C 51.398 -11.637 52.687 -12.182 54.261 -12.182 C 55.217 -12.182 56.023 -11.981 56.678 -11.58 C 57.06 -11.35 57.489 -10.955 57.967 -10.393 L 58.217 -11.875 L 59.861 -11.875 L 59.861 -5.503 L 54.914 -5.503 L 54.914 -7.485 L 57.661 -7.485 C 57.538 -8.259 57.21 -8.885 56.678 -9.362 C 56.146 -9.84 55.464 -10.079 54.632 -10.079 C 53.783 -10.079 53.026 -9.776 52.36 -9.17 C 51.694 -8.564 51.361 -7.533 51.361 -6.074 C 51.361 -4.627 51.668 -3.543 52.283 -2.822 C 52.898 -2.101 53.684 -1.74 54.64 -1.74 C 55.139 -1.74 55.593 -1.829 56.001 -2.006 C 56.732 -2.328 57.191 -2.895 57.379 -3.706 Z M 70.968 0 L 62.259 0 L 62.259 -11.875 L 71.258 -11.875 L 71.258 -9.74 L 64.684 -9.74 L 64.684 -6.687 L 70.452 -6.687 L 70.452 -4.625 L 64.684 -4.625 L 64.684 -2.103 L 70.968 -2.103 Z M 78.333 -2.063 C 78.843 -2.063 79.226 -2.132 79.481 -2.272 C 79.935 -2.519 80.162 -3.002 80.162 -3.722 C 80.162 -4.388 79.927 -4.834 79.458 -5.06 C 79.193 -5.188 78.795 -5.253 78.264 -5.253 L 75.594 -5.253 L 75.594 -2.063 Z M 78.849 0 L 73.169 0 L 73.169 -11.875 L 75.594 -11.875 L 75.594 -7.219 L 78.018 -7.219 C 78.708 -7.219 79.18 -7.345 79.431 -7.597 C 79.683 -7.85 79.813 -8.355 79.824 -9.112 L 79.84 -10.216 C 79.845 -10.565 79.88 -10.906 79.945 -11.239 C 79.977 -11.4 80.03 -11.612 80.106 -11.875 L 82.845 -11.875 L 82.845 -11.577 C 82.605 -11.432 82.452 -11.207 82.387 -10.901 C 82.343 -10.707 82.321 -10.339 82.321 -9.797 L 82.321 -8.999 C 82.321 -8.167 82.207 -7.548 81.979 -7.142 C 81.75 -6.737 81.362 -6.424 80.815 -6.204 C 81.47 -5.978 81.94 -5.593 82.225 -5.047 C 82.509 -4.502 82.652 -3.948 82.652 -3.384 C 82.652 -2.917 82.578 -2.5 82.432 -2.135 C 82.285 -1.77 82.086 -1.437 81.834 -1.136 C 81.531 -.771 81.16 -.494 80.723 -.306 C 80.285 -.118 79.661 -.016 78.849 0 M 93.635 0 L 84.926 0 L 84.926 -11.875 L 93.925 -11.875 L 93.925 -9.74 L 87.351 -9.74 L 87.351 -6.687 L 93.12 -6.687 L 93.12 -4.625 L 87.351 -4.625 L 87.351 -2.103 L 93.635 -2.103 Z M 100.505 -2.063 C 101.635 -2.063 102.389 -2.386 102.768 -3.033 C 103.148 -3.681 103.337 -4.608 103.337 -5.817 C 103.337 -6.692 103.211 -7.447 102.958 -8.081 C 102.495 -9.236 101.678 -9.813 100.505 -9.813 L 98.213 -9.813 L 98.213 -2.063 Z M 100.924 0 L 95.804 0 L 95.804 -11.875 L 100.924 -11.875 C 102.72 -11.875 104.047 -11.137 104.908 -9.66 C 105.542 -8.564 105.859 -7.227 105.859 -5.648 C 105.859 -5.025 105.784 -4.369 105.633 -3.682 C 105.483 -2.994 105.201 -2.355 104.787 -1.764 C 104.27 -1.034 103.596 -.532 102.763 -.258 C 102.274 -.097 101.661 -.011 100.924 0 " fill="#ffffff"/>
<path transform="matrix(1,0,0,-1,639.6198,70.992809)" d="M 0 0 C 0 -1.917 .484 -3.427 1.451 -4.528 C 2.418 -5.624 3.746 -6.171 5.436 -6.171 C 6.801 -6.171 7.921 -5.766 8.795 -4.955 C 9.669 -4.144 10.213 -3.091 10.425 -1.797 L 7.96 -1.797 C 7.797 -2.409 7.592 -2.868 7.345 -3.174 C 6.899 -3.744 6.25 -4.028 5.399 -4.028 C 4.568 -4.028 3.884 -3.697 3.346 -3.033 C 2.807 -2.37 2.538 -1.372 2.538 -.04 C 2.538 1.292 2.793 2.322 3.303 3.049 C 3.814 3.777 4.511 4.141 5.395 4.141 C 6.263 4.141 6.918 3.883 7.36 3.368 C 7.607 3.078 7.81 2.648 7.968 2.079 L 10.449 2.079 C 10.412 2.82 10.141 3.558 9.636 4.294 C 8.722 5.605 7.277 6.26 5.3 6.26 C 3.823 6.26 2.606 5.771 1.65 4.794 C .55 3.671 0 2.073 0 0 M 17.522 3.972 C 18.032 3.972 18.414 3.902 18.67 3.762 C 19.123 3.515 19.351 3.032 19.351 2.312 C 19.351 1.646 19.116 1.2 18.647 .975 C 18.381 .846 17.983 .781 17.453 .781 L 14.782 .781 L 14.782 3.972 Z M 18.038 6.034 L 12.357 6.034 L 12.357 -5.841 L 14.782 -5.841 L 14.782 -1.184 L 17.206 -1.184 C 17.897 -1.184 18.368 -1.311 18.62 -1.563 C 18.871 -1.816 19.002 -2.32 19.012 -3.078 L 19.028 -4.181 C 19.034 -4.531 19.069 -4.872 19.133 -5.205 C 19.165 -5.366 19.219 -5.578 19.294 -5.841 L 22.033 -5.841 L 22.033 -5.543 C 21.793 -5.398 21.641 -5.172 21.575 -4.866 C 21.532 -4.673 21.51 -4.305 21.51 -3.762 L 21.51 -2.965 C 21.51 -2.132 21.396 -1.513 21.167 -1.108 C 20.939 -.702 20.551 -.389 20.003 -.169 C 20.658 .056 21.128 .442 21.413 .987 C 21.698 1.532 21.84 2.087 21.84 2.651 C 21.84 3.118 21.767 3.534 21.62 3.899 C 21.473 4.265 21.274 4.598 21.023 4.898 C 20.719 5.264 20.349 5.54 19.911 5.728 C 19.474 5.916 18.849 6.018 18.038 6.034 M 26.468 6.034 L 24.003 6.034 L 24.003 -5.841 L 26.468 -5.841 Z M 27.832 6.034 L 27.832 3.932 L 31.401 3.932 L 31.401 -5.841 L 33.898 -5.841 L 33.898 3.932 L 37.451 3.932 L 37.451 6.034 Z M 41.249 6.034 L 38.784 6.034 L 38.784 -5.841 L 41.249 -5.841 Z M 43.127 0 C 43.127 -1.917 43.61 -3.427 44.577 -4.528 C 45.544 -5.624 46.873 -6.171 48.563 -6.171 C 49.928 -6.171 51.048 -5.766 51.922 -4.955 C 52.796 -4.144 53.339 -3.091 53.552 -1.797 L 51.087 -1.797 C 50.924 -2.409 50.719 -2.868 50.472 -3.174 C 50.025 -3.744 49.376 -4.028 48.525 -4.028 C 47.695 -4.028 47.011 -3.697 46.472 -3.033 C 45.934 -2.37 45.665 -1.372 45.665 -.04 C 45.665 1.292 45.92 2.322 46.43 3.049 C 46.94 3.777 47.638 4.141 48.522 4.141 C 49.39 4.141 50.045 3.883 50.487 3.368 C 50.734 3.078 50.937 2.648 51.095 2.079 L 53.576 2.079 C 53.539 2.82 53.268 3.558 52.763 4.294 C 51.849 5.605 50.404 6.26 48.427 6.26 C 46.95 6.26 45.733 5.771 44.777 4.794 C 43.677 3.671 43.127 2.073 43.127 0 M 59.84 3.319 L 61.34 -1.354 L 58.299 -1.354 Z M 54.223 -5.841 L 56.819 -5.841 L 57.624 -3.4 L 61.997 -3.4 L 62.781 -5.841 L 65.472 -5.841 L 61.27 6.034 L 58.462 6.034 Z M 66.923 -5.841 L 75.334 -5.841 L 75.334 -3.706 L 69.404 -3.706 L 69.404 6.034 L 66.923 6.034 Z M 76.861 -5.841 L 85.273 -5.841 L 85.273 -3.706 L 79.343 -3.706 L 79.343 6.034 L 76.861 6.034 Z M 89.636 .862 L 87.171 6.034 L 84.246 6.034 L 88.355 -1.388 L 88.355 -5.841 L 90.836 -5.841 L 90.836 -1.388 L 94.808 6.034 L 91.997 6.034 Z " fill="#ffffff"/>
</g>
</g>
</g>
</svg>
